# xmcd CD database file
#
# Track frame offsets:
#	150
#	72720
#	137660
#
# Disc length: 3378 seconds
#
# Revision: 1
# Processed by: cddbd v1.5.2PL0 Copyright (c) Steve Scherf et al.
# Submitted via: CDex 1.51
#
DISCID=2b0d3003
DTITLE=Anton Bruckner - Symphonie N°8 en ut mineur  (Carl Schuricht, Radio-Sinfonieorchester Stuttgart)
DYEAR=1900
DGENRE=Classique
TTITLE0=Symphonie N°8 en ut mineur - I. Allegro moderato
TTITLE1=Symphonie N°8 en ut mineur - II. Scherzo - Allegro moderato - Langsam
TTITLE2=Symphonie N°8 en ut mineur - III. Adagio - Feierlich langsam, doch nicht Schleppend
EXTD=
EXTT0=
EXTT1=
EXTT2=
PLAYORDER=
